<svg width="68" height="66" viewBox="0 0 68 66" fill="none" xmlns="http://www.w3.org/2000/svg">
<g clip-path="url(#clip0_777_1610)">
<path d="M62.562 33.2108C61.8176 31.9211 60.4418 31.1262 58.9526 31.1262H56.8288V12.66C56.8288 10.3572 54.9626 8.49036 52.6607 8.49036H49.9507C48.7172 8.49036 47.6119 9.03009 46.8483 9.88221C45.2731 8.74498 43.4123 8.1416 41.3675 8.1416C39.0014 8.1416 36.861 8.87657 35.1445 10.247C34.389 9.18522 33.1517 8.49036 31.7491 8.49036H29.0392C27.8056 8.49036 26.7004 9.03009 25.9368 9.88221C24.3615 8.74498 22.5007 8.1416 20.456 8.1416C17.915 8.1416 15.6275 8.97927 13.8533 10.5535C11.9155 12.2588 10.8916 14.5119 10.8916 17.0698C10.8916 18.3097 11.16 20.1466 12.4262 21.9209C10.829 22.7014 9.86278 24.4468 10.1339 26.2789C10.4114 28.1527 11.0381 29.7697 11.9979 31.1268H9.0468C7.69826 31.1268 6.43366 31.7788 5.65137 32.8775C4.86909 33.9768 4.66697 35.3857 5.10811 36.6604L10.6622 52.7116L11.437 54.9502C12.0182 56.6298 13.5993 57.7558 15.3762 57.7558H18.5032C20.2683 57.7558 21.8425 56.6432 22.4323 54.9785L23.2894 52.558L23.5723 51.7594C24.2 52.6918 24.9556 53.5508 25.8395 54.3238C28.4569 56.6009 31.4786 57.7558 34.8205 57.7558C38.5544 57.7558 41.7916 56.4452 44.4405 53.8611C45.1036 53.2149 45.687 52.5217 46.1901 51.7878V53.5856C46.1901 55.8884 48.0563 57.7552 50.3582 57.7552H53.0681C55.3701 57.7552 57.2362 55.8884 57.2362 53.5856V47.6545C57.2362 47.3539 57.2031 47.0613 57.1426 46.7783L62.5636 37.3794C63.3079 36.0897 63.3074 34.4999 62.5625 33.2103L62.562 33.2108Z" fill="white"/>
<path d="M25.3064 15.3355L23.1082 16.6385C22.697 15.9249 22.3056 15.4596 21.9334 15.2424C21.5457 14.9942 21.0458 14.8701 20.433 14.8701C19.6806 14.8701 19.0566 15.0835 18.5604 15.5099C18.0642 15.9287 17.8161 16.4561 17.8161 17.0921C17.8161 17.9689 18.4674 18.6744 19.7699 19.2098L21.5612 19.9427C23.0189 20.5321 24.0851 21.2516 24.7593 22.101C25.4342 22.9505 25.771 23.9914 25.771 25.2249C25.771 26.8773 25.2203 28.2424 24.1193 29.3202C23.0103 30.4061 21.6345 30.949 19.9908 30.949C18.4321 30.949 17.145 30.4879 16.1296 29.5647C15.1292 28.6414 14.5052 27.3427 14.257 25.6673L17.0017 25.0623C17.1258 26.1172 17.3429 26.8463 17.653 27.2496C18.2113 28.0252 19.0256 28.413 20.0956 28.413C20.941 28.413 21.6425 28.13 22.2007 27.5636C22.759 26.9976 23.0381 26.2798 23.0381 25.4111C23.0381 25.0618 22.9894 24.7419 22.8927 24.4515C22.7953 24.1605 22.644 23.893 22.4392 23.6485C22.2339 23.4041 21.9681 23.1757 21.6425 22.9623C21.3169 22.7488 20.9292 22.5456 20.4795 22.3514L18.7465 21.6298C16.2884 20.5905 15.0597 19.0702 15.0597 17.0691C15.0597 15.7195 15.5751 14.5909 16.6066 13.6837C17.638 12.7684 18.9208 12.3105 20.456 12.3105C22.5264 12.3105 24.1428 13.3189 25.3058 15.3355H25.3064Z" fill="#D4238B"/>
<path d="M31.7497 12.6602V30.6241H29.0398V12.6602H31.7497Z" fill="#D4238B"/>
<path d="M46.2174 15.3355L44.0192 16.6385C43.608 15.9249 43.2166 15.4596 42.8444 15.2424C42.4567 14.9942 41.9568 14.8701 41.344 14.8701C40.5917 14.8701 39.9676 15.0835 39.4714 15.5099C38.9752 15.9287 38.7271 16.4561 38.7271 17.0921C38.7271 17.9689 39.3784 18.6744 40.681 19.2098L42.4722 19.9427C43.9299 20.5321 44.9961 21.2516 45.6704 22.101C46.3452 22.9505 46.682 23.9914 46.682 25.2249C46.682 26.8773 46.1313 28.2424 45.0303 29.3202C43.9213 30.4061 42.5455 30.949 40.9018 30.949C39.3431 30.949 38.056 30.4879 37.0406 29.5647C36.0402 28.6414 35.4162 27.3427 35.1681 25.6673L37.9127 25.0623C38.0368 26.1172 38.2539 26.8463 38.564 27.2496C39.1223 28.0252 39.9366 28.413 41.0066 28.413C41.852 28.413 42.5535 28.13 43.1118 27.5636C43.67 26.9976 43.9491 26.2798 43.9491 25.4111C43.9491 25.0618 43.9005 24.7419 43.8037 24.4515C43.7064 24.1605 43.555 23.893 43.3502 23.6485C43.1449 23.4041 42.8792 23.1757 42.5535 22.9623C42.2279 22.7488 41.8402 22.5456 41.3905 22.3514L39.6575 21.6298C37.1994 20.5905 35.9707 19.0702 35.9707 17.0691C35.9707 15.7195 36.4861 14.5909 37.5176 13.6837C38.5491 12.7684 39.8318 12.3105 41.367 12.3105C43.4374 12.3105 45.0538 13.3189 46.2168 15.3355H46.2174Z" fill="#D4238B"/>
<path d="M52.6607 12.6602V35.2966H49.9508V12.6602H52.6607Z" fill="#D4238B"/>
<path d="M25.5272 44.1959C25.5272 41.6674 26.4539 39.4957 28.3066 37.6807C30.1519 35.8658 32.3694 34.958 34.959 34.958C37.5486 34.958 39.7121 35.8732 41.5419 37.7037C43.3797 39.5342 44.2983 41.7332 44.2983 44.3003C44.2983 46.8673 43.3754 49.0743 41.5301 50.8738C39.6768 52.6813 37.4401 53.5847 34.8195 53.5847C32.5009 53.5847 30.4193 52.7818 28.574 51.1765C26.5426 49.4006 25.5267 47.0738 25.5267 44.1959H25.5272ZM28.2607 44.2312C28.2607 46.2168 28.9274 47.8494 30.261 49.1294C31.5871 50.4095 33.118 51.0492 34.8547 51.0492C36.7391 51.0492 38.3282 50.3977 39.6233 49.0947C40.9184 47.7761 41.5654 46.1703 41.5654 44.2778C41.5654 42.3853 40.9259 40.7565 39.6463 39.4609C38.3748 38.1579 36.8006 37.5063 34.9243 37.5063C33.0479 37.5063 31.478 38.1579 30.191 39.4609C28.9039 40.7484 28.2601 42.3387 28.2601 44.2312H28.2607Z" fill="#D4238B"/>
<path d="M53.0676 47.6543H50.3577V53.5854H53.0676V47.6543Z" fill="#D4238B"/>
<path d="M50.3577 45.4999L44.4962 35.2959H47.613L51.7186 42.4744L55.8358 35.2959H58.9527L53.0676 45.4999H50.3577Z" fill="#FFB800"/>
<path d="M19.3598 51.1651L24.9807 35.2959H22.0152L16.9793 49.9632H19.3598V51.1651Z" fill="#D4238B"/>
<path d="M16.9793 49.9632L12.0129 35.2959H9.04733L14.6014 51.347V49.9632H16.9793Z" fill="#D4238B"/>
<path d="M19.3598 49.9629H16.9792H14.6014V51.3467L15.3756 53.5853H18.5026L19.3598 51.1648V49.9629Z" fill="#D4238B"/>
</g>
<defs>
<clipPath id="clip0_777_1610">
<rect width="68" height="65.8969" fill="white"/>
</clipPath>
</defs>
</svg>
