<svg width="187" height="63" viewBox="0 0 187 63" fill="none" xmlns="http://www.w3.org/2000/svg">
<rect x="0.77756" y="0.77756" width="185.059" height="60.6497" rx="8.55316" fill="black"/>
<rect x="0.77756" y="0.77756" width="185.059" height="60.6497" rx="8.55316" stroke="#A6A6A6" stroke-width="1.55512"/>
<path d="M38.4184 32.2891C38.4373 30.8586 38.8265 29.4559 39.5499 28.2117C40.2732 26.9674 41.3071 25.922 42.5555 25.1727C41.7625 24.067 40.7162 23.157 39.4999 22.515C38.2836 21.873 36.9308 21.5168 35.5488 21.4746C32.6008 21.1725 29.7428 23.1968 28.2406 23.1968C26.7092 23.1968 24.3963 21.5046 21.9056 21.5546C20.2946 21.6054 18.7245 22.0628 17.3484 22.8822C15.9722 23.7015 14.837 24.8549 14.0532 26.23C10.658 31.969 13.1905 40.4035 16.4428 45.0425C18.0701 47.3141 19.9718 49.8515 22.4602 49.7615C24.8953 49.6629 25.8048 48.2455 28.7441 48.2455C31.6561 48.2455 32.5094 49.7615 35.0483 49.7043C37.6612 49.6629 39.3075 47.4226 40.8777 45.1295C42.0468 43.5109 42.9465 41.722 43.5433 39.8291C42.0253 39.2023 40.7298 38.153 39.8185 36.8122C38.9071 35.4714 38.4202 33.8983 38.4184 32.2891Z" fill="white"/>
<path d="M33.623 18.4237C35.0476 16.7539 35.7495 14.6078 35.5796 12.4409C33.403 12.6641 31.3924 13.6797 29.9485 15.2854C29.2425 16.0698 28.7018 16.9824 28.3573 17.9709C28.0128 18.9595 27.8712 20.0046 27.9406 21.0466C29.0293 21.0576 30.1064 20.8272 31.0906 20.3729C32.0749 19.9185 32.9408 19.2521 33.623 18.4237Z" fill="white"/>
<path d="M57.2145 12.6774H60.4333C63.2148 12.6774 64.5679 14.3312 64.5679 17.3314C64.5679 20.3315 63.2011 22.0059 60.4333 22.0059H57.2145V12.6774ZM58.7658 13.9827V20.7006H60.2625C62.1077 20.7006 62.9756 19.5866 62.9756 17.3519C62.9756 15.1035 62.1008 13.9827 60.2625 13.9827H58.7658ZM69.4747 14.6593C71.3609 14.6593 72.6799 15.8826 72.6799 17.9123V18.8485C72.6799 20.9466 71.3609 22.1289 69.4747 22.1289C67.5612 22.1289 66.2559 20.9603 66.2559 18.8554V17.9191C66.2559 15.9441 67.5817 14.6593 69.4747 14.6593ZM69.4816 15.8826C68.4018 15.8826 67.7867 16.7847 67.7867 17.9943V18.8007C67.7867 20.0103 68.3608 20.9056 69.4816 20.9056C70.5887 20.9056 71.1559 20.0172 71.1559 18.8007V17.9943C71.1559 16.7847 70.5614 15.8826 69.4816 15.8826ZM83.8194 14.7823L81.9195 22.0059H80.375L78.8647 16.6753H78.8237L77.3407 22.0059H75.7894L73.8075 14.7823H75.4408L76.6026 20.2905H76.671L78.1266 14.7823H79.5549L81.0516 20.2905H81.1199L82.3022 14.7823H83.8194ZM85.3229 22.0059V14.7823H86.8127V16.0808H86.8878C87.0724 15.5135 87.5986 14.6729 89.0611 14.6729C90.5167 14.6729 91.494 15.4794 91.494 17.1264V22.0059H89.9768V17.5706C89.9768 16.4703 89.4028 15.9646 88.5485 15.9646C87.4277 15.9646 86.84 16.8257 86.84 17.9943V22.0059H85.3229ZM93.7902 22.0059V12.1854H95.3074V22.0059H93.7902ZM100.515 14.6593C102.401 14.6593 103.72 15.8826 103.72 17.9123V18.8485C103.72 20.9466 102.401 22.1289 100.515 22.1289C98.6014 22.1289 97.2961 20.9603 97.2961 18.8554V17.9191C97.2961 15.9441 98.6219 14.6593 100.515 14.6593ZM100.522 15.8826C99.4419 15.8826 98.8269 16.7847 98.8269 17.9943V18.8007C98.8269 20.0103 99.4009 20.9056 100.522 20.9056C101.629 20.9056 102.196 20.0172 102.196 18.8007V17.9943C102.196 16.7847 101.602 15.8826 100.522 15.8826ZM107.65 22.1152C106.249 22.1152 105.285 21.2541 105.285 19.9078C105.285 18.6298 106.173 17.7688 107.841 17.7688H109.666V17.0922C109.666 16.2653 109.139 15.8757 108.306 15.8757C107.486 15.8757 107.117 16.2174 107 16.6958H105.558C105.647 15.4862 106.556 14.6729 108.354 14.6729C109.898 14.6729 111.176 15.3153 111.176 17.1127V22.0059H109.734V21.0696H109.666C109.344 21.6232 108.716 22.1152 107.65 22.1152ZM108.121 20.9398C108.982 20.9398 109.666 20.352 109.666 19.5661V18.787H108.08C107.199 18.787 106.809 19.2312 106.809 19.8326C106.809 20.5844 107.438 20.9398 108.121 20.9398ZM115.85 14.6866C116.869 14.6866 117.648 15.1377 117.928 15.8689H118.003V12.1854H119.52V22.0059H118.044V20.8509H117.969C117.75 21.5821 116.882 22.1015 115.83 22.1015C114.169 22.1015 113.089 20.9192 113.089 19.0126V17.7756C113.089 15.8689 114.19 14.6866 115.85 14.6866ZM116.274 15.9304C115.263 15.9304 114.634 16.6822 114.634 17.9943V18.787C114.634 20.106 115.27 20.8577 116.308 20.8577C117.333 20.8577 118.003 20.1128 118.003 18.8827V17.7893C118.003 16.6753 117.272 15.9304 116.274 15.9304ZM127.851 14.6593C129.737 14.6593 131.056 15.8826 131.056 17.9123V18.8485C131.056 20.9466 129.737 22.1289 127.851 22.1289C125.937 22.1289 124.632 20.9603 124.632 18.8554V17.9191C124.632 15.9441 125.958 14.6593 127.851 14.6593ZM127.858 15.8826C126.778 15.8826 126.163 16.7847 126.163 17.9943V18.8007C126.163 20.0103 126.737 20.9056 127.858 20.9056C128.965 20.9056 129.532 20.0172 129.532 18.8007V17.9943C129.532 16.7847 128.938 15.8826 127.858 15.8826ZM133.011 22.0059V14.7823H134.501V16.0808H134.576C134.76 15.5135 135.286 14.6729 136.749 14.6729C138.205 14.6729 139.182 15.4794 139.182 17.1264V22.0059H137.665V17.5706C137.665 16.4703 137.091 15.9646 136.236 15.9646C135.116 15.9646 134.528 16.8257 134.528 17.9943V22.0059H133.011ZM145.052 14.8301V13.0259H146.535V14.8301H148.155V16.0193H146.535V19.8531C146.535 20.6391 146.829 20.8577 147.642 20.8577C147.847 20.8577 148.121 20.8441 148.237 20.8304V21.9922C148.114 22.0127 147.608 22.0537 147.266 22.0537C145.51 22.0537 145.032 21.425 145.032 19.9762V16.0193H143.931V14.8301H145.052ZM150.068 22.0059V12.1854H151.579V16.0808H151.654C151.811 15.5682 152.399 14.6729 153.848 14.6729C155.255 14.6729 156.26 15.4862 156.26 17.1332V22.0059H154.75V17.5774C154.75 16.4771 154.142 15.9646 153.28 15.9646C152.194 15.9646 151.579 16.8188 151.579 17.9943V22.0059H150.068ZM161.351 22.1289C159.383 22.1289 158.16 20.9192 158.16 18.8827V17.9054C158.16 15.8552 159.499 14.6593 161.263 14.6593C163.074 14.6593 164.352 15.9167 164.352 17.9054V18.7529H159.663V19.1082C159.663 20.147 160.278 20.9124 161.345 20.9124C162.137 20.9124 162.684 20.5365 162.787 20.0855H164.27C164.181 20.9192 163.299 22.1289 161.351 22.1289ZM159.663 17.7619H162.869V17.6663C162.869 16.5796 162.233 15.8552 161.269 15.8552C160.306 15.8552 159.663 16.5796 159.663 17.6663V17.7619Z" fill="white"/>
<path d="M59.4151 48.002H56.2577L62.6817 29.3451H66.1534L72.5637 48.002H69.2834L67.6296 42.8354H61.0826L59.4151 48.002ZM64.4312 32.5707H64.3082L61.7796 40.4572H66.9325L64.4312 32.5707ZM81.2774 48.207C79.4049 48.207 77.9834 47.3186 77.218 45.9927H77.1087V52.7994H74.0744V33.5548H77.0267V35.6734H77.136C77.9288 34.2929 79.4049 33.3635 81.3458 33.3635C84.5851 33.3635 86.895 35.81 86.895 40.1292V41.414C86.895 45.7057 84.6124 48.207 81.2774 48.207ZM80.5804 45.7057C82.5076 45.7057 83.8197 44.1612 83.8197 41.2499V40.2385C83.8197 37.4365 82.5896 35.8374 80.5257 35.8374C78.4071 35.8374 77.0813 37.5596 77.0813 40.2248V41.2499C77.0813 43.9835 78.4208 45.7057 80.5804 45.7057ZM96.7022 48.207C94.8296 48.207 93.4082 47.3186 92.6428 45.9927H92.5334V52.7994H89.4991V33.5548H92.4514V35.6734H92.5608C93.3535 34.2929 94.8296 33.3635 96.7705 33.3635C100.01 33.3635 102.32 35.81 102.32 40.1292V41.414C102.32 45.7057 100.037 48.207 96.7022 48.207ZM96.0051 45.7057C97.9323 45.7057 99.2444 44.1612 99.2444 41.2499V40.2385C99.2444 37.4365 98.0143 35.8374 95.9504 35.8374C93.8319 35.8374 92.5061 37.5596 92.5061 40.2248V41.2499C92.5061 43.9835 93.8455 45.7057 96.0051 45.7057ZM108.608 42.8218H111.642C111.779 44.4346 113.2 45.8151 115.838 45.8151C118.257 45.8151 119.692 44.6806 119.692 42.9174C119.692 41.496 118.736 40.7305 116.74 40.2522L113.679 39.4868C111.273 38.9264 109.113 37.4912 109.113 34.4569C109.113 30.8895 112.23 28.935 115.852 28.935C119.474 28.935 122.494 30.8895 122.563 34.3749H119.583C119.446 32.7894 118.23 31.4773 115.811 31.4773C113.679 31.4773 112.23 32.4887 112.23 34.2246C112.23 35.441 113.077 36.3158 114.813 36.7121L117.861 37.4639C120.663 38.1473 122.795 39.4731 122.795 42.6441C122.795 46.3071 119.829 48.371 115.606 48.371C110.412 48.371 108.676 45.3367 108.608 42.8218ZM126.493 33.5548V30.0421H129.472V33.5548H132.288V35.9877H129.472V43.6965C129.472 45.2683 130.06 45.7057 131.687 45.7057C131.946 45.7057 132.192 45.7057 132.37 45.6784V48.002C132.124 48.043 131.55 48.0976 130.935 48.0976C127.422 48.0976 126.452 46.8402 126.452 43.9425V35.9877H124.456V33.5548H126.493ZM140.482 33.3088C144.637 33.3088 146.893 36.2338 146.893 40.1702V41.3319C146.893 45.405 144.651 48.248 140.482 48.248C136.314 48.248 134.045 45.405 134.045 41.3319V40.1702C134.045 36.2474 136.327 33.3088 140.482 33.3088ZM140.482 35.7417C138.227 35.7417 137.106 37.5869 137.106 40.2112V41.3183C137.106 43.9015 138.213 45.8014 140.482 45.8014C142.751 45.8014 143.845 43.9152 143.845 41.3183V40.2112C143.845 37.5732 142.738 35.7417 140.482 35.7417ZM149.456 48.002V33.5548H152.49V35.4547H152.599C152.968 34.5526 154.048 33.3498 156.057 33.3498C156.454 33.3498 156.795 33.3771 157.082 33.4318V36.1107C156.823 36.0424 156.29 36.0014 155.784 36.0014C153.351 36.0014 152.531 37.5049 152.531 39.4458V48.002H149.456ZM164.443 48.248C160.575 48.248 158.115 45.6921 158.115 41.414V39.9515C158.115 35.9194 160.52 33.3088 164.32 33.3088C168.174 33.3088 170.498 36.0151 170.498 40.0881V41.4686H161.108V41.8103C161.108 44.2432 162.42 45.8561 164.484 45.8561C166.029 45.8561 167.081 45.0907 167.45 43.8469H170.334C169.897 46.1841 168.01 48.248 164.443 48.248ZM161.108 39.3501H167.532V39.3227C167.532 37.2725 166.261 35.6597 164.334 35.6597C162.379 35.6597 161.108 37.2725 161.108 39.3227V39.3501Z" fill="white"/>
</svg>
