<svg width="187" height="63" viewBox="0 0 187 63" fill="none" xmlns="http://www.w3.org/2000/svg">
<rect x="0.77756" y="0.77756" width="185.059" height="60.6497" rx="8.55316" fill="black"/>
<rect x="0.77756" y="0.77756" width="185.059" height="60.6497" rx="8.55316" stroke="#A6A6A6" stroke-width="1.55512"/>
<path d="M27.6885 30.2651L12.5802 46.6626C12.5816 46.6655 12.5816 46.6699 12.583 46.6728C13.0471 48.4533 14.6364 49.7637 16.5237 49.7637C17.2786 49.7637 17.9867 49.5547 18.594 49.189L18.6423 49.16L35.6478 39.1256L27.6885 30.2651Z" fill="#EA4335"/>
<path d="M42.9728 27.473L42.9586 27.4629L35.6166 23.111L27.3451 30.6379L35.6464 39.124L42.9487 34.8157C44.2286 34.1075 45.0985 32.7275 45.0985 31.1371C45.0985 29.5554 44.2414 28.1826 42.9728 27.473Z" fill="#FBBC04"/>
<path d="M12.58 15.5406C12.4892 15.883 12.4409 16.2429 12.4409 16.6144V45.5902C12.4409 45.9617 12.4892 46.3216 12.5814 46.6626L28.2077 30.6844L12.58 15.5406Z" fill="#4285F4"/>
<path d="M27.8001 31.1021L35.619 23.1079L18.6333 13.0371C18.016 12.6584 17.2951 12.4407 16.5246 12.4407C14.6373 12.4407 13.0452 13.754 12.5811 15.536C12.5811 15.5374 12.5797 15.5389 12.5797 15.5403L27.8001 31.1021Z" fill="#34A853"/>
<path d="M67.8188 17.659C67.8188 19.2142 67.3575 20.4531 66.4348 21.3758C65.398 22.4747 64.0347 23.0242 62.3448 23.0242C60.7275 23.0242 59.359 22.4644 58.2393 21.3447C57.1196 20.225 56.5598 18.8461 56.5598 17.2081C56.5598 15.57 57.1196 14.1911 58.2393 13.0714C59.359 11.9518 60.7275 11.3919 62.3448 11.3919C63.1638 11.3919 63.9362 11.5371 64.6619 11.8273C65.3877 12.1176 65.9838 12.5271 66.4503 13.0559L65.424 14.0823C65.0818 13.6676 64.636 13.3462 64.0866 13.1181C63.5474 12.8796 62.9669 12.7604 62.3448 12.7604C61.1318 12.7604 60.1054 13.1803 59.2657 14.0201C58.4363 14.8702 58.0216 15.9329 58.0216 17.2081C58.0216 18.4833 58.4363 19.5459 59.2657 20.3961C60.1054 21.2358 61.1318 21.6557 62.3448 21.6557C63.4541 21.6557 64.3768 21.3447 65.1129 20.7226C65.849 20.1006 66.2741 19.2453 66.3881 18.1567H62.3448V16.8193H67.7411C67.7929 17.1096 67.8188 17.3895 67.8188 17.659ZM76.0576 11.6407V13.0092H70.9879V16.5394H75.5599V17.8768H70.9879V21.4069H76.0576V22.7754H69.5572V11.6407H76.0576ZM81.7803 13.0092V22.7754H80.3496V13.0092H77.2393V11.6407H84.8905V13.0092H81.7803ZM91.2318 22.7754H89.8011V11.6407H91.2318V22.7754ZM97.2708 13.0092V22.7754H95.8401V13.0092H92.7298V11.6407H100.381V13.0092H97.2708ZM115.889 17.2081C115.889 18.8565 115.34 20.2354 114.241 21.3447C113.131 22.4644 111.773 23.0242 110.166 23.0242C108.549 23.0242 107.191 22.4644 106.092 21.3447C104.993 20.2354 104.444 18.8565 104.444 17.2081C104.444 15.5596 104.993 14.1808 106.092 13.0714C107.191 11.9518 108.549 11.3919 110.166 11.3919C111.784 11.3919 113.142 11.9569 114.241 13.087C115.34 14.1963 115.889 15.57 115.889 17.2081ZM105.905 17.2081C105.905 18.4936 106.31 19.5563 107.118 20.3961C107.937 21.2358 108.953 21.6557 110.166 21.6557C111.379 21.6557 112.39 21.2358 113.199 20.3961C114.018 19.5667 114.427 18.504 114.427 17.2081C114.427 15.9121 114.018 14.8495 113.199 14.0201C112.39 13.1803 111.379 12.7604 110.166 12.7604C108.953 12.7604 107.937 13.1803 107.118 14.0201C106.31 14.8598 105.905 15.9225 105.905 17.2081ZM119.008 22.7754H117.578V11.6407H119.319L124.731 20.3027H124.793L124.731 18.1567V11.6407H126.162V22.7754H124.669L119.008 13.6935H118.946L119.008 15.8396V22.7754Z" fill="white"/>
<path d="M145.432 48.8458H147.965V31.7216H145.432V48.8458ZM168.247 37.8899L165.343 45.3144H165.256L162.243 37.8899H159.514L164.033 48.2663L161.458 54.0388H164.098L171.063 37.8899H168.247ZM153.882 46.9006C153.051 46.9006 151.895 46.4828 151.895 45.4459C151.895 44.1253 153.335 43.6185 154.58 43.6185C155.693 43.6185 156.218 43.861 156.894 44.1911C156.697 45.7774 155.344 46.9006 153.882 46.9006ZM154.188 37.5159C152.354 37.5159 150.453 38.331 149.669 40.1378L151.917 41.0843C152.397 40.1378 153.292 39.8282 154.231 39.8282C155.541 39.8282 156.873 40.6213 156.894 42.0323V42.2076C156.435 41.9432 155.454 41.5473 154.253 41.5473C151.83 41.5473 149.362 42.8911 149.362 45.402C149.362 47.6938 151.349 49.1704 153.575 49.1704C155.279 49.1704 156.218 48.3992 156.807 47.4951H156.894V48.817H159.339V42.2514C159.339 39.2118 157.091 37.5159 154.188 37.5159ZM138.533 39.9748H134.931V34.1051H138.533C140.427 34.1051 141.502 35.6872 141.502 37.0392C141.502 38.3666 140.427 39.9748 138.533 39.9748ZM138.468 31.7216H132.399V48.8458H134.931V42.3583H138.468C141.275 42.3583 144.035 40.3063 144.035 37.0392C144.035 33.7722 141.275 31.7216 138.468 31.7216ZM105.372 46.9034C103.623 46.9034 102.158 45.4253 102.158 43.3952C102.158 41.3432 103.623 39.8419 105.372 39.8419C107.1 39.8419 108.455 41.3432 108.455 43.3952C108.455 45.4253 107.1 46.9034 105.372 46.9034ZM108.281 38.8488H108.193C107.624 38.1652 106.532 37.5474 105.154 37.5474C102.267 37.5474 99.6209 40.1063 99.6209 43.3952C99.6209 46.6609 102.267 49.1992 105.154 49.1992C106.532 49.1992 107.624 48.5814 108.193 47.8746H108.281V48.7143C108.281 50.943 107.1 52.1347 105.197 52.1347C103.644 52.1347 102.682 51.0087 102.288 50.0594L100.08 50.9868C100.714 52.532 102.398 54.4292 105.197 54.4292C108.171 54.4292 110.687 52.6635 110.687 48.3609V37.8995H108.281V38.8488ZM112.437 48.8458H114.974V31.7202H112.437V48.8458ZM118.712 43.1966C118.647 40.946 120.44 39.7981 121.73 39.7981C122.737 39.7981 123.589 40.3049 123.873 41.0336L118.712 43.1966ZM126.585 41.2542C126.105 39.9529 124.639 37.5474 121.643 37.5474C118.669 37.5474 116.198 39.9076 116.198 43.3733C116.198 46.639 118.647 49.1992 121.926 49.1992C124.573 49.1992 126.105 47.5664 126.739 46.6171L124.77 45.2924C124.115 46.2637 123.217 46.9034 121.926 46.9034C120.637 46.9034 119.718 46.3075 119.127 45.139L126.847 41.9158L126.585 41.2542ZM65.082 39.3351V41.8062H70.9421C70.767 43.1966 70.3082 44.2116 69.6091 44.9171C68.7552 45.7787 67.4209 46.728 65.082 46.728C61.4725 46.728 58.6518 43.7925 58.6518 40.1515C58.6518 36.5091 61.4725 33.5749 65.082 33.5749C67.0286 33.5749 68.4498 34.3475 69.4991 35.3406L71.2271 33.5968C69.7611 32.1846 67.8159 31.1024 65.082 31.1024C60.1395 31.1024 55.9844 35.1639 55.9844 40.1515C55.9844 45.139 60.1395 49.1992 65.082 49.1992C67.7494 49.1992 69.7611 48.3157 71.3357 46.6609C72.9552 45.0281 73.4574 42.7336 73.4574 40.8789C73.4574 40.3049 73.414 39.7761 73.3258 39.3351H65.082ZM80.1211 46.9034C78.3714 46.9034 76.8619 45.4472 76.8619 43.3733C76.8619 41.2761 78.3714 39.8419 80.1211 39.8419C81.8695 39.8419 83.379 41.2761 83.379 43.3733C83.379 45.4472 81.8695 46.9034 80.1211 46.9034ZM80.1211 37.5474C76.9271 37.5474 74.3248 39.9967 74.3248 43.3733C74.3248 46.728 76.9271 49.1992 80.1211 49.1992C83.3139 49.1992 85.9161 46.728 85.9161 43.3733C85.9161 39.9967 83.3139 37.5474 80.1211 37.5474ZM92.763 46.9034C91.0133 46.9034 89.5038 45.4472 89.5038 43.3733C89.5038 41.2761 91.0133 39.8419 92.763 39.8419C94.5128 39.8419 96.0209 41.2761 96.0209 43.3733C96.0209 45.4472 94.5128 46.9034 92.763 46.9034ZM92.763 37.5474C89.5703 37.5474 86.9681 39.9967 86.9681 43.3733C86.9681 46.728 89.5703 49.1992 92.763 49.1992C95.9558 49.1992 98.558 46.728 98.558 43.3733C98.558 39.9967 95.9558 37.5474 92.763 37.5474Z" fill="white"/>
</svg>
