<svg width="32" height="32" viewBox="0 0 32 32" fill="none" xmlns="http://www.w3.org/2000/svg">
<g clip-path="url(#clip0_777_1633)">
<path d="M15.7348 0C7.04479 0 0 7.04479 0 15.7348C0 23.1138 5.08045 29.3058 11.9339 31.0064V20.5434H8.68939V15.7348H11.9339V13.6628C11.9339 8.30735 14.3577 5.82502 19.6156 5.82502C20.6126 5.82502 22.3327 6.02077 23.0364 6.21588V10.5744C22.665 10.5354 22.0199 10.5159 21.2187 10.5159C18.6388 10.5159 17.6419 11.4933 17.6419 14.0342V15.7348H22.7815L21.8984 20.5434H17.6419V31.3544C25.4331 30.4135 31.4702 23.7797 31.4702 15.7348C31.4696 7.04479 24.4248 0 15.7348 0Z" fill="white"/>
</g>
<defs>
<clipPath id="clip0_777_1633">
<rect width="31.4696" height="31.4696" fill="white"/>
</clipPath>
</defs>
</svg>
