<svg width="32" height="32" viewBox="0 0 32 32" fill="none" xmlns="http://www.w3.org/2000/svg">
<g clip-path="url(#clip0_777_1637)">
<path d="M15.7348 2.83349C19.9389 2.83349 20.4368 2.85193 22.0902 2.92569C23.6268 2.9933 24.4566 3.25145 25.0097 3.46657C25.7412 3.74931 26.2697 4.09351 26.8168 4.64054C27.37 5.19371 27.708 5.71616 27.9907 6.44758C28.2059 7.00076 28.464 7.83667 28.5316 9.36712C28.6054 11.0267 28.6238 11.5245 28.6238 15.7225C28.6238 19.9267 28.6054 20.4245 28.5316 22.0779C28.464 23.6145 28.2059 24.4443 27.9907 24.9974C27.708 25.7289 27.3638 26.2575 26.8168 26.8045C26.2636 27.3577 25.7412 27.6957 25.0097 27.9784C24.4566 28.1936 23.6206 28.4517 22.0902 28.5193C20.4307 28.5931 19.9328 28.6115 15.7348 28.6115C11.5307 28.6115 11.0328 28.5931 9.37942 28.5193C7.84282 28.4517 7.01305 28.1936 6.45987 27.9784C5.72845 27.6957 5.19986 27.3515 4.65283 26.8045C4.09965 26.2513 3.7616 25.7289 3.47887 24.9974C3.26374 24.4443 3.00559 23.6084 2.93798 22.0779C2.86423 20.4184 2.84579 19.9205 2.84579 15.7225C2.84579 11.5184 2.86423 11.0205 2.93798 9.36712C3.00559 7.83052 3.26374 7.00076 3.47887 6.44758C3.7616 5.71616 4.1058 5.18757 4.65283 4.64054C5.20601 4.08736 5.72845 3.74931 6.45987 3.46657C7.01305 3.25145 7.84896 2.9933 9.37942 2.92569C11.0328 2.85193 11.5307 2.83349 15.7348 2.83349ZM15.7348 0C11.463 0 10.9283 0.0184392 9.25034 0.0921961C7.57852 0.165953 6.42914 0.436395 5.43342 0.823619C4.39468 1.22928 3.51575 1.76402 2.64296 2.64296C1.76402 3.51575 1.22928 4.39468 0.823619 5.42728C0.436395 6.42914 0.165953 7.57237 0.0921961 9.2442C0.0184392 10.9283 0 11.463 0 15.7348C0 20.0066 0.0184392 20.5413 0.0921961 22.2193C0.165953 23.8911 0.436395 25.0405 0.823619 26.0362C1.22928 27.0749 1.76402 27.9539 2.64296 28.8267C3.51575 29.6994 4.39468 30.2403 5.42728 30.6398C6.42914 31.0271 7.57237 31.2975 9.2442 31.3713C10.9222 31.445 11.4569 31.4635 15.7287 31.4635C20.0004 31.4635 20.5351 31.445 22.2131 31.3713C23.8849 31.2975 25.0343 31.0271 26.03 30.6398C27.0626 30.2403 27.9416 29.6994 28.8144 28.8267C29.6871 27.9539 30.228 27.0749 30.6275 26.0423C31.0148 25.0405 31.2852 23.8972 31.359 22.2254C31.4327 20.5474 31.4512 20.0127 31.4512 15.741C31.4512 11.4692 31.4327 10.9345 31.359 9.25649C31.2852 7.58467 31.0148 6.43529 30.6275 5.43957C30.2403 4.39468 29.7056 3.51575 28.8267 2.64296C27.9539 1.77017 27.0749 1.22928 26.0423 0.829765C25.0405 0.442541 23.8972 0.172099 22.2254 0.0983425C20.5413 0.0184392 20.0066 0 15.7348 0Z" fill="white"/>
<path d="M15.735 7.65234C11.2727 7.65234 7.65245 11.2726 7.65245 15.7349C7.65245 20.1972 11.2727 23.8174 15.735 23.8174C20.1973 23.8174 23.8175 20.1972 23.8175 15.7349C23.8175 11.2726 20.1973 7.65234 15.735 7.65234ZM15.735 20.9778C12.84 20.9778 10.4921 18.6298 10.4921 15.7349C10.4921 12.8399 12.84 10.492 15.735 10.492C18.6299 10.492 20.9779 12.8399 20.9779 15.7349C20.9779 18.6298 18.6299 20.9778 15.735 20.9778Z" fill="white"/>
<path d="M26.0241 7.33226C26.0241 8.37715 25.1759 9.21921 24.1371 9.21921C23.0922 9.21921 22.2502 8.37101 22.2502 7.33226C22.2502 6.28737 23.0984 5.44531 24.1371 5.44531C25.1759 5.44531 26.0241 6.29352 26.0241 7.33226Z" fill="white"/>
</g>
<defs>
<clipPath id="clip0_777_1637">
<rect width="31.4696" height="31.4696" fill="white"/>
</clipPath>
</defs>
</svg>
