<svg width="32" height="32" viewBox="0 0 32 32" fill="none" xmlns="http://www.w3.org/2000/svg">
<g clip-path="url(#clip0_777_1641)">
<path d="M29.1401 0H2.32334C1.03874 0 0 1.01416 0 2.26802V29.1954C0 30.4493 1.03874 31.4696 2.32334 31.4696H29.1401C30.4247 31.4696 31.4696 30.4493 31.4696 29.2016V2.26802C31.4696 1.01416 30.4247 0 29.1401 0ZM9.33639 26.8168H4.66512V11.795H9.33639V26.8168ZM7.00076 9.7482C5.50104 9.7482 4.29019 8.53736 4.29019 7.04378C4.29019 5.55021 5.50104 4.33936 7.00076 4.33936C8.49434 4.33936 9.70518 5.55021 9.70518 7.04378C9.70518 8.53121 8.49434 9.7482 7.00076 9.7482ZM26.8168 26.8168H22.1517V19.5148C22.1517 17.7754 22.1209 15.532 19.7238 15.532C17.296 15.532 16.9272 17.4312 16.9272 19.3919V26.8168H12.2682V11.795H16.7428V13.8479H16.8043C17.4251 12.6677 18.9494 11.42 21.2174 11.42C25.944 11.42 26.8168 14.5301 26.8168 18.5744V26.8168Z" fill="white"/>
</g>
<defs>
<clipPath id="clip0_777_1641">
<rect width="31.4696" height="31.4696" fill="white"/>
</clipPath>
</defs>
</svg>
