<svg width="32" height="32" viewBox="0 0 32 32" fill="none" xmlns="http://www.w3.org/2000/svg">
<path d="M0 31.4696L2.21205 23.3885C0.847057 21.023 0.129812 18.3415 0.131123 15.5919C0.135057 6.99543 7.13049 0 15.7256 0C19.8967 0.00131123 23.812 1.62593 26.757 4.57358C29.7008 7.52124 31.3214 11.4392 31.3201 15.6063C31.3162 24.2041 24.3208 31.1995 15.7256 31.1995C13.1163 31.1982 10.5449 30.5439 8.26733 29.3008L0 31.4696ZM8.65021 26.4777C10.8478 27.7824 12.9458 28.5639 15.7204 28.5652C22.864 28.5652 28.6832 22.7512 28.6872 15.6037C28.6898 8.44172 22.8981 2.63558 15.7309 2.63296C8.58202 2.63296 2.7667 8.44697 2.76408 15.5932C2.76277 18.5107 3.61769 20.6952 5.05349 22.9807L3.74357 27.7641L8.65021 26.4777ZM23.5812 19.3132C23.4842 19.1506 23.2246 19.0535 22.8338 18.8582C22.4444 18.6628 20.5287 17.72 20.1707 17.5902C19.8141 17.4604 19.5544 17.3948 19.2935 17.7856C19.0339 18.175 18.2865 19.0535 18.0596 19.3132C17.8328 19.5728 17.6046 19.6056 17.2152 19.4102C16.8258 19.2148 15.5696 18.8044 14.0813 17.4761C12.9235 16.4429 12.1407 15.167 11.9139 14.7763C11.687 14.3869 11.8903 14.1757 12.0843 13.9817C12.26 13.8073 12.4738 13.5267 12.6691 13.2985C12.8671 13.073 12.9314 12.9104 13.0625 12.6495C13.1923 12.3898 13.1281 12.1617 13.0297 11.9663C12.9314 11.7723 12.1525 9.85392 11.8286 9.07374C11.5113 8.31453 11.1901 8.41681 10.9514 8.40501L10.204 8.3919C9.9444 8.3919 9.52218 8.48893 9.16552 8.87967C8.80887 9.27042 7.80184 10.2119 7.80184 12.1302C7.80184 14.0486 9.1983 15.9013 9.39237 16.161C9.58774 16.4206 12.1394 20.3569 16.0482 22.0445C16.9779 22.4457 17.7043 22.6857 18.2694 22.8653C19.203 23.1616 20.0527 23.1197 20.724 23.02C21.4728 22.9086 23.0292 22.0772 23.3544 21.1672C23.6796 20.2559 23.6796 19.4758 23.5812 19.3132Z" fill="white"/>
</svg>
